# xmcd
#
# Track frame offsets:
# 150
# 19102
# 32435
# 63865
# 93320
# 115727
# 133522
#
# Disc length: 2396 seconds
#
#
# Revision: 4
# Processed by: cddbd v1.5.2PL0 Copyright (c) Steve Scherf et al.
# Submitted via: FreeRIP 2.945 
#
DISCID=4c095a07
DTITLE=John Lee Hooker - Never Get Out Of These Blues Alive
DYEAR=1972
DGENRE=Blues
TTITLE0=Bumblebee, Bumblebee
TTITLE1=Hit The Road
TTITLE2=Country Boy
TTITLE3=Boogie With The Hook
TTITLE4=T.B. Sheets
TTITLE5=Letter To My Baby
TTITLE6=Never Get Out Of These Blues Alive
EXTD=
EXTT0=
EXTT1=
EXTT2=
EXTT3=
EXTT4=
EXTT5=
EXTT6=
PLAYORDER=
